<svg id="Layer_1" data-name="Layer 1" xmlns="http://www.w3.org/2000/svg" viewBox="0 0 100 100"><defs><style>.cls-1{fill:#fff;}.cls-2{fill:#606060;}</style></defs><title>heart</title><path class="cls-1" d="M49.14,82a.55.55,0,0,1-.34-.13A188.24,188.24,0,0,1,32.73,65.06C22,52.32,16.6,41.85,16.6,33.94c0-10.53,6.2-15.55,12-16.75a17.47,17.47,0,0,1,11.81,1.93,20.76,20.76,0,0,1,8.72,9.36,20.76,20.76,0,0,1,8.72-9.36,17.46,17.46,0,0,1,11.81-1.93c5.8,1.2,12,6.22,12,16.75,0,7.91-5.43,18.38-16.14,31.12A189,189,0,0,1,49.48,81.83.55.55,0,0,1,49.14,82ZM31.73,17.9a14,14,0,0,0-2.92.29C23.4,19.3,17.61,24,17.61,33.94c0,17.31,28.1,43.68,31.53,46.83,3.42-3.15,31.53-29.53,31.53-46.83,0-9.92-5.79-14.64-11.21-15.75C62.68,16.8,53.68,20.37,49.6,29.9a.51.51,0,0,1-.46.3.52.52,0,0,1-.47-.3C45.16,21.69,38,17.9,31.73,17.9Z"/><path class="cls-1" d="M50.3,68.7a.52.52,0,0,1-.37-.16.52.52,0,0,1,0-.72c3-2.85,13.79-15,21.66-28.76a.5.5,0,0,1,.69-.19.51.51,0,0,1,.19.69c-7.93,13.88-18.79,26.11-21.85,29A.49.49,0,0,1,50.3,68.7Z"/><path class="cls-2" d="M49.14,82.63a1.18,1.18,0,0,1-.79-.3C47,81.14,15.92,53,15.92,33.94c0-10.94,6.49-16.16,12.55-17.41a18.18,18.18,0,0,1,12.27,2A21.25,21.25,0,0,1,49.14,27a21.23,21.23,0,0,1,8.39-8.49,18.18,18.18,0,0,1,12.27-2C75.87,17.78,82.35,23,82.35,33.94c0,19.08-31.1,47.2-32.42,48.39A1.2,1.2,0,0,1,49.14,82.63ZM31.74,18.57a13.4,13.4,0,0,0-2.79.28c-6.68,1.36-10.67,7-10.67,15.09,0,16.42,26,41.35,30.86,45.91C54,75.29,80,50.35,80,33.94c0-8.08-4-13.73-10.66-15.09C62.81,17.51,54.16,21,50.22,30.16a1.16,1.16,0,0,1-1.08.72,1.19,1.19,0,0,1-1.09-.72C44.66,22.23,37.75,18.57,31.74,18.57Z"/><path class="cls-2" d="M50.3,69.37a1.15,1.15,0,0,1-.86-.37,1.17,1.17,0,0,1,.05-1.67c3-2.84,13.7-14.89,21.54-28.61a1.18,1.18,0,0,1,2,1.17c-8,14-18.9,26.26-22,29.16A1.2,1.2,0,0,1,50.3,69.37Z"/><path class="cls-2" d="M49.14,81.79a.35.35,0,0,1-.23-.09A186.15,186.15,0,0,1,32.86,65c-10.68-12.71-16.1-23.14-16.1-31,0-10.43,6.14-15.4,11.88-16.58a17.32,17.32,0,0,1,11.7,1.9,20.77,20.77,0,0,1,8.8,9.61,20.66,20.66,0,0,1,8.8-9.61,17.29,17.29,0,0,1,11.69-1.9c5.75,1.18,11.88,6.15,11.88,16.58,0,7.87-5.41,18.3-16.1,31a186.15,186.15,0,0,1-16,16.75A.31.31,0,0,1,49.14,81.79ZM31.73,17.73a14.91,14.91,0,0,0-2.95.29c-5.48,1.12-11.34,5.9-11.34,15.92,0,17.59,28.84,44.44,31.7,47.05,2.86-2.61,31.7-29.47,31.7-47,0-10-5.86-14.8-11.34-15.92-6.85-1.4-15.94,2.2-20,11.81a.35.35,0,0,1-.31.2.33.33,0,0,1-.31-.2C45.29,21.55,38.05,17.73,31.73,17.73Z"/><path class="cls-2" d="M50.3,68.53a.36.36,0,0,1-.25-.11.34.34,0,0,1,0-.48c3-2.86,13.82-15,21.7-28.8a.34.34,0,0,1,.46-.13.33.33,0,0,1,.12.46c-7.91,13.87-18.76,26.09-21.81,29A.35.35,0,0,1,50.3,68.53Z"/></svg>